<mxfile host="app.diagrams.net" modified="2024-03-24T14:37:25.228Z" agent="Mozilla/5.0 (Windows NT 10.0; Win64; x64) AppleWebKit/537.36 (KHTML, like Gecko) Chrome/122.0.0.0 Safari/537.36 Edg/122.0.0.0" etag="phRSKdc134E7Of7WPYTi" version="24.1.0" type="github">
  <diagram name="Page-1" id="c4acf3e9-155e-7222-9cf6-157b1a14988f">
    <mxGraphModel dx="946" dy="673" grid="1" gridSize="10" guides="1" tooltips="1" connect="1" arrows="1" fold="1" page="1" pageScale="1" pageWidth="850" pageHeight="1100" background="none" math="0" shadow="0">
      <root>
        <mxCell id="0" />
        <mxCell id="1" parent="0" />
        <mxCell id="kgqGU4TKHltl0eIKOpX1-1" value="用户" style="shape=umlActor;verticalLabelPosition=bottom;verticalAlign=top;html=1;outlineConnect=0;strokeWidth=2;fontSize=20;" vertex="1" parent="1">
          <mxGeometry x="420" y="360" width="30" height="60" as="geometry" />
        </mxCell>
        <mxCell id="kgqGU4TKHltl0eIKOpX1-2" value="查看订单" style="ellipse;whiteSpace=wrap;html=1;strokeWidth=2;fontSize=20;" vertex="1" parent="1">
          <mxGeometry x="490" y="240" width="130" height="60" as="geometry" />
        </mxCell>
        <mxCell id="kgqGU4TKHltl0eIKOpX1-3" value="寻求订单" style="ellipse;whiteSpace=wrap;html=1;strokeWidth=2;fontSize=20;" vertex="1" parent="1">
          <mxGeometry x="560" y="370" width="120" height="60" as="geometry" />
        </mxCell>
        <mxCell id="kgqGU4TKHltl0eIKOpX1-4" value="查看需求报告" style="ellipse;whiteSpace=wrap;html=1;strokeWidth=2;fontSize=20;" vertex="1" parent="1">
          <mxGeometry x="510" y="470" width="140" height="60" as="geometry" />
        </mxCell>
        <mxCell id="kgqGU4TKHltl0eIKOpX1-5" value="查看成果&lt;span style=&quot;background-color: initial; font-size: 20px;&quot;&gt;报告&lt;/span&gt;" style="ellipse;whiteSpace=wrap;html=1;strokeWidth=2;fontSize=20;" vertex="1" parent="1">
          <mxGeometry x="290" y="510" width="160" height="60" as="geometry" />
        </mxCell>
        <mxCell id="kgqGU4TKHltl0eIKOpX1-6" value="与平台聊天" style="ellipse;whiteSpace=wrap;html=1;strokeWidth=2;fontSize=20;" vertex="1" parent="1">
          <mxGeometry x="190" y="430" width="110" height="60" as="geometry" />
        </mxCell>
        <mxCell id="kgqGU4TKHltl0eIKOpX1-7" value="与用户&lt;span style=&quot;background-color: initial; font-size: 20px;&quot;&gt;聊天&lt;/span&gt;" style="ellipse;whiteSpace=wrap;html=1;strokeWidth=2;fontSize=20;" vertex="1" parent="1">
          <mxGeometry x="180" y="300" width="110" height="60" as="geometry" />
        </mxCell>
        <mxCell id="kgqGU4TKHltl0eIKOpX1-8" value="关注" style="ellipse;whiteSpace=wrap;html=1;strokeWidth=2;fontSize=20;" vertex="1" parent="1">
          <mxGeometry x="330" y="240" width="70" height="60" as="geometry" />
        </mxCell>
      </root>
    </mxGraphModel>
  </diagram>
</mxfile>
